<svg xmlns="http://www.w3.org/2000/svg" width="155.79" height="31.57" viewBox="0 0 155.79 31.57"><defs><style>.cls-1,.cls-2{fill:#fff;}.cls-2{fill-rule:evenodd;}</style></defs><g id="Capa_2" data-name="Capa 2"><g id="Capa_1-2" data-name="Capa 1"><path class="cls-1" d="M155.79,23.86H153V11.49h2.78Zm-7.61-.95-.51.43a2.8,2.8,0,0,1-.61.38,3.31,3.31,0,0,1-.73.28,3.62,3.62,0,0,1-1,.1,2.67,2.67,0,0,1-2-.8,2.73,2.73,0,0,1-.78-2,2.89,2.89,0,0,1,.4-1.61,2.8,2.8,0,0,1,1.14-1,6.34,6.34,0,0,1,1.81-.51c.7-.09,1.45-.16,2.26-.22v0a1,1,0,0,0-.55-1,3.79,3.79,0,0,0-1.63-.28,4.51,4.51,0,0,0-1.16.18,8.13,8.13,0,0,0-1.28.46h-.24V15.12c.27-.08.72-.17,1.33-.28a10.62,10.62,0,0,1,1.86-.16,5.85,5.85,0,0,1,3.37.76,2.72,2.72,0,0,1,1,2.35v6.07h-2.77Zm0-1.38V19.67l-1.14.12a4.14,4.14,0,0,0-.86.2,1.21,1.21,0,0,0-.57.39,1.05,1.05,0,0,0-.21.69,1,1,0,0,0,.34.86,1.74,1.74,0,0,0,1,.24,1.93,1.93,0,0,0,.75-.17A2.42,2.42,0,0,0,148.18,21.53Zm-6-4H142a1.93,1.93,0,0,0-.46-.08c-.2,0-.42,0-.67,0a3.46,3.46,0,0,0-.92.13,7.21,7.21,0,0,0-.93.3v6H136.2V14.93H139v1.28c.13-.12.31-.26.53-.44a5.44,5.44,0,0,1,.62-.43,3.5,3.5,0,0,1,.7-.31,2.38,2.38,0,0,1,.76-.13h.3l.3,0ZM132,18.25a2.11,2.11,0,0,0-.41-1.35,1.43,1.43,0,0,0-1.18-.46,1.65,1.65,0,0,0-1.27.49,2,2,0,0,0-.5,1.32Zm-.92,5.85a5.58,5.58,0,0,1-3.87-1.21,4.38,4.38,0,0,1-1.35-3.44A4.8,4.8,0,0,1,127.13,16a4.66,4.66,0,0,1,3.52-1.31,4,4,0,0,1,3.08,1.11,4.44,4.44,0,0,1,1,3.16v1h-6.1a2.41,2.41,0,0,0,.26,1,1.83,1.83,0,0,0,.59.67,2.31,2.31,0,0,0,.83.35,4.88,4.88,0,0,0,1,.11,4.35,4.35,0,0,0,1-.11,5.1,5.1,0,0,0,.86-.28,5.33,5.33,0,0,0,.63-.33c.19-.12.35-.22.47-.31h.3v2.3l-.63.25a5.3,5.3,0,0,1-.77.23,7.11,7.11,0,0,1-.94.19A7.81,7.81,0,0,1,131.1,24.1Zm-6.63-.24h-2.8V19.43c0-.36,0-.72,0-1.08a2.51,2.51,0,0,0-.16-.79.92.92,0,0,0-.42-.43,1.63,1.63,0,0,0-.72-.13,1.87,1.87,0,0,0-.69.13,3.06,3.06,0,0,0-.75.4v6.33h-2.78V14.93h2.78v1a6.72,6.72,0,0,1,1.33-.91,3.12,3.12,0,0,1,1.44-.33,2.56,2.56,0,0,1,2.09.87,3.8,3.8,0,0,1,.72,2.5Zm-12.54-5.61a2.17,2.17,0,0,0-.41-1.35,1.45,1.45,0,0,0-1.18-.46,1.65,1.65,0,0,0-1.27.49,2,2,0,0,0-.5,1.32ZM111,24.1a5.6,5.6,0,0,1-3.88-1.21,4.38,4.38,0,0,1-1.35-3.44A4.81,4.81,0,0,1,107,16a4.66,4.66,0,0,1,3.52-1.31,4,4,0,0,1,3.08,1.11,4.44,4.44,0,0,1,1,3.16v1h-6.1a2.56,2.56,0,0,0,.27,1,1.74,1.74,0,0,0,.59.67,2.31,2.31,0,0,0,.83.35,4.81,4.81,0,0,0,1,.11,4.49,4.49,0,0,0,1-.11,4.71,4.71,0,0,0,.85-.28,5.49,5.49,0,0,0,.64-.33c.19-.12.35-.22.47-.31h.29v2.3l-.62.25a5.49,5.49,0,0,1-.78.23,7,7,0,0,1-.93.19A7.81,7.81,0,0,1,111,24.1Zm-6.66-.92a14.24,14.24,0,0,1-2,.62,10,10,0,0,1-2.45.31,6.12,6.12,0,0,1-4.45-1.61,6.08,6.08,0,0,1-1.66-4.57,6,6,0,0,1,1.66-4.46A6.06,6.06,0,0,1,100,11.79a8.83,8.83,0,0,1,2.42.28,14.08,14.08,0,0,1,1.93.77v2.77H104l-.61-.47a7.54,7.54,0,0,0-.78-.52,5.15,5.15,0,0,0-1-.44,4.23,4.23,0,0,0-1.24-.18,3.86,3.86,0,0,0-1.39.24,3.15,3.15,0,0,0-1.12.73,3.56,3.56,0,0,0-.75,1.21,4.85,4.85,0,0,0-.27,1.7,4,4,0,0,0,1,3.06,4,4,0,0,0,2.85,1h.37c.14,0,.27,0,.38,0V19.57h-2.3V17.36h5.17ZM85.2,19.41a5.44,5.44,0,0,0-.13-1.32,2.59,2.59,0,0,0-.36-.85,1.41,1.41,0,0,0-.56-.46,1.75,1.75,0,0,0-.7-.13,1.83,1.83,0,0,0-.68.11,1.42,1.42,0,0,0-.56.44,2.49,2.49,0,0,0-.38.85,5.8,5.8,0,0,0-.14,1.36,5.36,5.36,0,0,0,.13,1.33,2.56,2.56,0,0,0,.35.81,1.35,1.35,0,0,0,.56.45,1.78,1.78,0,0,0,.74.14,1.69,1.69,0,0,0,.68-.14,1.24,1.24,0,0,0,.55-.43,2.47,2.47,0,0,0,.37-.82A5.24,5.24,0,0,0,85.2,19.41Zm2.86,0a4.85,4.85,0,0,1-1.21,3.47,5.2,5.2,0,0,1-6.81,0,4.85,4.85,0,0,1-1.21-3.47A4.85,4.85,0,0,1,80,15.91a4.52,4.52,0,0,1,3.41-1.26,4.46,4.46,0,0,1,3.4,1.27A4.86,4.86,0,0,1,88.06,19.4ZM75.28,24.1a6.76,6.76,0,0,1-2-.28,4.33,4.33,0,0,1-1.6-.86,3.89,3.89,0,0,1-1-1.46,5.21,5.21,0,0,1-.37-2.07,5.31,5.31,0,0,1,.4-2.18,4.13,4.13,0,0,1,1.1-1.48A4.36,4.36,0,0,1,73.32,15a6.52,6.52,0,0,1,1.88-.27,6.37,6.37,0,0,1,3,.72v2.39h-.35a5.26,5.26,0,0,0-.41-.35,3.81,3.81,0,0,0-1.21-.64,2.89,2.89,0,0,0-.86-.11,2,2,0,0,0-1.65.74,3.21,3.21,0,0,0-.58,2,2.86,2.86,0,0,0,.62,2,2.18,2.18,0,0,0,1.66.66,3.68,3.68,0,0,0,.93-.12,3.31,3.31,0,0,0,.68-.29,3,3,0,0,0,.47-.35l.35-.32h.35v2.39l-.55.23a4.88,4.88,0,0,1-.64.23c-.27.07-.52.13-.76.17A5.68,5.68,0,0,1,75.28,24.1Zm-6.44-.24H66V19.43c0-.36,0-.72,0-1.08a2.83,2.83,0,0,0-.16-.79.92.92,0,0,0-.42-.43A1.63,1.63,0,0,0,64.7,17a1.87,1.87,0,0,0-.69.13,3.06,3.06,0,0,0-.75.4v6.33H60.48V14.93h2.78v1A6.72,6.72,0,0,1,64.59,15,3.12,3.12,0,0,1,66,14.68a2.56,2.56,0,0,1,2.09.87,3.8,3.8,0,0,1,.72,2.5Zm-13.19-.95-.51.43a3.06,3.06,0,0,1-.61.38,3.31,3.31,0,0,1-.73.28,3.72,3.72,0,0,1-1,.1,2.65,2.65,0,0,1-2-.8,2.73,2.73,0,0,1-.78-2,2.89,2.89,0,0,1,.4-1.61,2.74,2.74,0,0,1,1.14-1,6.25,6.25,0,0,1,1.81-.51c.7-.09,1.45-.16,2.26-.22v0a1.06,1.06,0,0,0-.55-1,3.79,3.79,0,0,0-1.63-.28,4.51,4.51,0,0,0-1.16.18,8.62,8.62,0,0,0-1.29.46H50.8V15.12c.28-.08.73-.17,1.34-.28A10.62,10.62,0,0,1,54,14.68a5.79,5.79,0,0,1,3.36.76,2.7,2.7,0,0,1,1.06,2.35v6.07H55.65Zm0-1.38V19.67l-1.15.12a4.46,4.46,0,0,0-.86.2,1.23,1.23,0,0,0-.56.39,1.05,1.05,0,0,0-.21.69,1,1,0,0,0,.34.86,1.74,1.74,0,0,0,1,.24A1.93,1.93,0,0,0,55,22,2.42,2.42,0,0,0,55.65,21.53Zm-9.53-1.35a1.44,1.44,0,0,0-.22-.86,1.36,1.36,0,0,0-.67-.47,2.1,2.1,0,0,0-.74-.11l-1.27,0h-.55v3h.16l1.61,0a2.6,2.6,0,0,0,.91-.21,1.21,1.21,0,0,0,.59-.52A1.58,1.58,0,0,0,46.12,20.18Zm-.74-4.81a1.32,1.32,0,0,0-.15-.59.9.9,0,0,0-.46-.44,2,2,0,0,0-.69-.14H42.67V16.7h.38l1.07,0a1.72,1.72,0,0,0,.63-.16,1,1,0,0,0,.49-.47A1.59,1.59,0,0,0,45.38,15.37Zm3.8,4.86a3.51,3.51,0,0,1-.33,1.56,3.12,3.12,0,0,1-.9,1.1,4.1,4.1,0,0,1-1.47.75,7.61,7.61,0,0,1-2,.22H39.72V12H43.9a13.79,13.79,0,0,1,2,.1,3.9,3.9,0,0,1,1.26.42,2.26,2.26,0,0,1,.95.91,2.69,2.69,0,0,1,.32,1.32A2.83,2.83,0,0,1,48,16.32a2.47,2.47,0,0,1-1.19,1v.06a3.25,3.25,0,0,1,1.76.95A2.68,2.68,0,0,1,49.18,20.23Z"/><path class="cls-2" d="M18.21,5.2h3.54L18.89,7.29Zm-3.39,0H11.27l2.87,2.08ZM10,4.75h5L16.51,0l1.54,4.75h5L19,7.69l1.54,4.75-4-2.94-4,2.94L14,7.69Z"/><path class="cls-2" d="M5.47,12l1.1-3.37L7.67,12Zm-1,3.23-1.1,3.37L6.2,16.5ZM2.49,19.67,4,14.92,0,12H5L6.54,7.24,8.08,12h5L9,14.93l1.54,4.75-4-2.94Z"/><path class="cls-2" d="M27.54,12l-1.1-3.37L25.35,12Zm1.05,3.23,1.1,3.37L26.81,16.5Zm1.93,4.46L29,14.92,33,12H28L26.48,7.24,24.93,12h-5l4,2.93-1.54,4.76,4-2.94Z"/><path class="cls-2" d="M25,26.35l2.88-2.07-3.55,0Zm-2.75,2-2.87,2.07L20.44,27Zm-3.65,3.2,4-2.92,4,2.94L25.1,26.81l4-2.92-5,0-1.53-4.75-1.56,4.75H16.15l4,2.93Z"/><path class="cls-2" d="M8.05,26.36,5.18,24.28H8.73Zm2.75,2,2.88,2.08-1.1-3.37Zm3.66,3.21-4.05-2.93-4,2.95,1.53-4.75-4-2.92,5,0,1.53-4.76L12,23.87h4.93l-4,2.93Z"/></g></g></svg>
