<svg width="145" height="34" viewBox="0 0 145 34" fill="none" xmlns="http://www.w3.org/2000/svg">
<path d="M144.969 7.09941C144.961 6.94314 144.895 6.79542 144.784 6.68477C144.673 6.57412 144.525 6.50838 144.369 6.50024H142.357C142.198 6.50024 142.045 6.56337 141.933 6.67574C141.82 6.7881 141.757 6.9405 141.757 7.09941V26.9014C141.765 27.0576 141.831 27.2053 141.942 27.316C142.053 27.4266 142.2 27.4924 142.357 27.5005H144.369C144.528 27.5005 144.681 27.4374 144.793 27.325C144.906 27.2127 144.969 27.0603 144.969 26.9014V7.09941Z" fill="#ffffff"/>
<path d="M62.3194 6.50708H60.3751C60.2966 6.50791 60.219 6.52417 60.1467 6.55494C60.0745 6.58571 60.009 6.63039 59.9541 6.68642C59.8991 6.74245 59.8558 6.80874 59.8265 6.88149C59.7972 6.95425 59.7826 7.03206 59.7834 7.11046V21.0094L46.5646 6.794C46.4934 6.70739 46.4041 6.63726 46.3031 6.58845C46.202 6.53964 46.0915 6.51331 45.9792 6.5113C45.6263 6.5113 45.303 6.5113 45.303 6.5113C45.1495 6.51124 45.002 6.57093 44.8919 6.67769C44.7818 6.78445 44.7178 6.92987 44.7134 7.08304V26.8955C44.7142 27.0506 44.7745 27.1995 44.8817 27.3117C44.989 27.4238 45.1352 27.4908 45.2903 27.4989H47.2663C47.4245 27.4967 47.5754 27.4319 47.6859 27.3188C47.7965 27.2057 47.8576 27.0535 47.8559 26.8955L47.8347 12.6485L61.474 27.2436C61.474 27.2436 61.7382 27.4947 61.8967 27.4947H62.3194C62.4729 27.4948 62.6203 27.4351 62.7304 27.3283C62.8405 27.2215 62.9046 27.0761 62.909 26.923L62.9238 26.5664V7.11046C62.92 6.95162 62.8551 6.80031 62.7426 6.68796C62.63 6.57561 62.4785 6.51083 62.3194 6.50708Z" fill="#ffffff"/>
<path d="M81.4936 27.4926H82.3263C82.4849 27.4926 82.637 27.4297 82.7492 27.3177C82.8613 27.2057 82.9243 27.0539 82.9243 26.8955V25.1023C82.9243 24.9439 82.8613 24.792 82.7492 24.6801C82.637 24.5681 82.4849 24.5052 82.3263 24.5052H74.507V17.9882H82.3411C82.4198 17.988 82.4977 17.9722 82.5703 17.9418C82.6428 17.9114 82.7087 17.867 82.7641 17.8111C82.8194 17.7553 82.8632 17.689 82.8929 17.6163C82.9226 17.5435 82.9376 17.4656 82.937 17.387V15.5979C82.937 15.5193 82.9215 15.4415 82.8913 15.3689C82.8611 15.2964 82.8168 15.2305 82.7611 15.175C82.7053 15.1195 82.6391 15.0756 82.5663 15.0457C82.4935 15.0158 82.4155 15.0006 82.3368 15.0009H74.5028V9.49657H82.322C82.4806 9.49657 82.6328 9.43367 82.7449 9.3217C82.8571 9.20973 82.9201 9.05786 82.9201 8.89952V7.10413C82.9201 6.94579 82.8571 6.79392 82.7449 6.68195C82.6328 6.56998 82.4806 6.50708 82.322 6.50708H71.9161C71.7573 6.50708 71.6049 6.56992 71.4925 6.68182C71.38 6.79373 71.3165 6.94559 71.3159 7.10413V26.8976C71.3164 27.0544 71.3785 27.2047 71.4887 27.3163C71.5989 27.4279 71.7486 27.4919 71.9055 27.4947H81.4936V27.4926Z" fill="#ffffff"/>
<path d="M133.364 7.0957C133.359 6.94126 133.295 6.79458 133.185 6.68531C133.076 6.57604 132.929 6.51234 132.774 6.50708H130.805C130.648 6.50708 130.498 6.5691 130.388 6.67949C130.277 6.78987 130.215 6.93959 130.215 7.0957L130.226 18.8933C130.226 20.7203 130.071 21.5853 129.577 22.4503C129.173 23.1023 128.607 23.6391 127.935 24.0087C127.262 24.3783 126.505 24.5682 125.737 24.5601C124.097 24.5601 122.612 23.7162 121.868 22.4503C121.373 21.5853 121.217 20.7203 121.217 18.8933L121.229 7.0957C121.225 6.94145 121.161 6.79478 121.052 6.68546C120.943 6.57614 120.796 6.51237 120.642 6.50708H118.67C118.593 6.50681 118.516 6.52184 118.444 6.55132C118.373 6.5808 118.307 6.62415 118.253 6.67886C118.198 6.73358 118.154 6.79858 118.125 6.87012C118.095 6.94166 118.08 7.01832 118.081 7.0957L118.093 19.7288C118.093 21.7394 118.586 23.2246 119.67 24.5812C120.395 25.4886 121.316 26.2213 122.364 26.7249C123.411 27.2284 124.559 27.4899 125.722 27.4899C126.885 27.4899 128.033 27.2284 129.081 26.7249C130.129 26.2213 131.05 25.4886 131.775 24.5812C132.859 23.2204 133.351 21.7056 133.351 19.7288L133.364 7.0957Z" fill="#ffffff"/>
<path d="M106.087 25.8597C104.399 26.9228 102.445 27.4895 100.449 27.4947C98.9382 27.4806 97.447 27.1529 96.0699 26.5326C94.6929 25.9123 93.4601 25.0128 92.45 23.8913C90.7847 22.0748 89.9351 19.6718 89.9351 17.0768C89.9296 15.6908 90.1982 14.3173 90.7257 13.0352C91.2532 11.753 92.0291 10.5875 93.0088 9.60543C93.9886 8.62339 95.153 7.84416 96.4352 7.31246C97.7174 6.78076 99.0922 6.50707 100.481 6.50708C106.36 6.50708 111.047 11.292 111.047 17.2667C111.047 20.022 110.17 22.1191 108.169 24.2014L106.087 25.8597ZM106.055 22.0516C107.419 20.598 107.996 19.1444 107.996 17.0557C107.996 12.7245 104.722 9.39108 100.447 9.39108C96.1715 9.39108 92.9931 12.6633 92.9931 17.1148C92.9931 19.3258 93.7201 21.0832 95.1762 22.4756C96.3057 23.6 97.7698 24.3286 99.3491 24.5522C100.928 24.7759 102.538 24.4825 103.936 23.7162" fill="#ffffff"/>
<path d="M110.628 26.6221C111.114 27.101 110.952 27.4912 110.271 27.4912H108.175C107.853 27.4731 107.547 27.3467 107.306 27.1326L100.455 20.3669C100.353 20.2657 100.284 20.1365 100.255 19.9957C100.227 19.8549 100.241 19.7088 100.295 19.576C100.35 19.4432 100.443 19.3295 100.563 19.2495C100.682 19.1695 100.823 19.1267 100.967 19.1265H102.533C102.856 19.1477 103.163 19.2779 103.403 19.4957L110.628 26.6221Z" fill="#ffffff"/>
<path d="M17.5483 1.22981L3.47061 8.44693C1.04872 9.68951 0.306126 12.6662 1.90102 14.8118L14.5737 31.8831C14.8418 32.2085 15.1742 32.4752 15.5501 32.6664C15.926 32.8575 16.3373 32.9691 16.7583 32.994C17.1793 33.019 17.6009 32.9568 17.9967 32.8114C18.3926 32.666 18.7541 32.4404 19.0588 32.1489L32.1387 18.1176C32.5012 17.7357 32.7062 17.2309 32.7124 16.7044C32.7187 16.1779 32.5258 15.6684 32.1724 15.278L20.0799 1.68549C19.8819 1.46686 19.6398 1.29256 19.3697 1.17403C19.0996 1.05551 18.8074 0.995431 18.5124 0.997745C18.1773 0.998199 17.847 1.07771 17.5483 1.22981Z" fill="none" stroke="#ffffff" stroke-width="1" />
<path d="M10.0253 2.6292L0.865197 15.1057C-0.710713 17.2533 0.0382133 20.23 2.47064 21.4621L21.852 31.2762C23.4807 32.0335 25.4384 31.2361 25.9848 29.5884L31.0311 11.4454C31.1673 10.933 31.1084 10.3883 30.866 9.9167C30.6236 9.44514 30.2149 9.08028 29.7189 8.89276L12.4957 1.93091C12.2424 1.8284 11.9715 1.7761 11.6983 1.7769C11.3738 1.77476 11.0534 1.84886 10.7628 1.99323C10.4722 2.13761 10.2196 2.34822 10.0253 2.6081" fill="#ffffff"/>
<path d="M24.6876 6.87371L14.5338 2.77466L7.12896 6.57203L1.52783 14.2026C1.63546 14.4157 1.76035 14.6196 1.90124 14.8123L9.46645 25.002L20.502 30.5946L27.9133 22.6413L30.4849 13.3968L24.6876 6.87371Z" fill="#ffffff"/>
</svg>
